<svg width="471" height="497" viewBox="0 0 471 497" fill="none" xmlns="http://www.w3.org/2000/svg">
<path d="M78.4505 104.638C78.4593 113.884 81.7683 122.748 87.6513 129.286C93.5343 135.823 101.511 139.501 109.831 139.51H188.281C193.444 139.508 198.525 138.089 203.076 135.38C207.626 132.671 211.504 128.755 214.366 123.98C221.201 128.851 229.228 131.247 237.339 130.839C245.451 130.431 253.249 127.237 259.66 121.7C266.071 116.162 270.78 108.551 273.137 99.9162C275.495 91.2813 275.385 82.0465 272.824 73.4836C270.262 64.9207 265.375 57.4508 258.835 52.1025C252.295 46.7543 244.424 43.7907 236.305 43.6199C228.187 43.4491 220.22 46.0795 213.502 51.1488C206.785 56.2182 201.647 63.4772 198.796 71.9262C195.43 70.535 191.872 69.8042 188.281 69.7664H187.497C185.677 59.9269 180.859 51.0858 173.857 44.7335C166.854 38.3812 158.095 34.9062 149.056 34.8943C147.728 34.9485 146.404 35.0787 145.088 35.2844C143.806 35.0518 142.51 34.9214 141.211 34.8943H140.426C138.622 25.0451 133.81 16.1915 126.806 9.83253C119.801 3.47356 111.034 0 101.99 0C92.9449 0 84.178 3.47356 77.1735 9.83253C70.1689 16.1915 65.3571 25.0451 63.5528 34.8943H62.7683C54.4457 34.8943 46.464 38.5683 40.5791 45.1081C34.6942 51.6479 31.3881 60.5177 31.3881 69.7664C31.3881 79.015 34.6942 87.8848 40.5791 94.4246C46.464 100.964 54.4457 104.638 62.7683 104.638H78.4505ZM235.352 61.0483C239.194 61.0141 242.986 62.0259 246.395 63.9955C249.805 65.965 252.729 68.8324 254.911 72.3471C257.094 75.8617 258.469 79.9168 258.916 84.1581C259.363 88.3994 258.869 92.6978 257.476 96.6779C256.084 100.658 253.836 104.199 250.928 106.991C248.021 109.783 244.542 111.741 240.797 112.695C237.051 113.649 233.152 113.569 229.441 112.462C225.729 111.355 222.318 109.255 219.506 106.346C219.532 105.768 219.661 105.224 219.661 104.638C219.629 96.5308 217.032 88.6941 212.324 82.5001C213.286 76.4895 216.121 71.0467 220.331 67.1247C224.541 63.2028 229.858 61.0517 235.352 61.0483ZM172.591 78.4844C172.591 80.7965 173.418 83.014 174.889 84.6489C176.36 86.2839 178.356 87.2024 180.436 87.2024H188.281C192.443 87.2024 196.433 89.0394 199.376 92.3093C202.318 95.5792 203.971 100.014 203.971 104.638C203.971 109.263 202.318 113.698 199.376 116.968C196.433 120.237 192.443 122.074 188.281 122.074H109.831C105.669 122.074 101.679 120.237 98.7362 116.968C95.7937 113.698 94.1406 109.263 94.1406 104.638C94.1406 100.014 95.7937 95.5792 98.7362 92.3093C101.679 89.0394 105.669 87.2024 109.831 87.2024H117.676C119.756 87.2024 121.752 86.2839 123.223 84.6489C124.694 83.014 125.521 80.7965 125.521 78.4844C125.521 71.5479 128 64.8955 132.414 59.9907C136.828 55.0858 142.814 52.3303 149.056 52.3303C155.298 52.3303 161.284 55.0858 165.698 59.9907C170.112 64.8955 172.591 71.5479 172.591 78.4844V78.4844ZM47.0703 69.7664C47.0753 65.1437 48.7299 60.712 51.6713 57.4433C54.6127 54.1746 58.6007 52.3358 62.7604 52.3303H70.6055C72.6861 52.3303 74.6815 51.4118 76.1528 49.7769C77.624 48.1419 78.4505 45.9245 78.4505 43.6123C78.4505 36.6758 80.9301 30.0235 85.3438 25.1186C89.7575 20.2138 95.7438 17.4583 101.986 17.4583C108.228 17.4583 114.214 20.2138 118.628 25.1186C123.041 30.0235 125.521 36.6758 125.521 43.6123C125.521 43.6657 125.547 43.7093 125.548 43.7616C117.886 50.1167 112.577 59.3653 110.623 69.7664H109.839C104.355 69.7856 98.9729 71.4067 94.2313 74.467C89.4897 77.5273 85.5554 81.9192 82.8232 87.2024H62.7604C58.6007 87.1969 54.6127 85.3581 51.6713 82.0894C48.7299 78.8207 47.0753 74.389 47.0703 69.7664V69.7664Z" fill="#333333"/>
<path d="M407.943 148.229C400.276 148.243 392.678 149.829 385.529 152.906C382.605 148.739 378.864 145.367 374.592 143.046C370.32 140.725 365.628 139.516 360.872 139.511H360.083C358.278 129.663 353.466 120.81 346.461 114.452C339.457 108.094 330.691 104.622 321.647 104.622C312.603 104.622 303.837 108.094 296.833 114.452C289.829 120.81 285.017 129.663 283.211 139.511H282.422C274.099 139.511 266.118 143.185 260.233 149.724C254.348 156.264 251.042 165.134 251.042 174.383C251.042 183.631 254.348 192.501 260.233 199.041C266.118 205.581 274.099 209.255 282.422 209.255H345.728C345.382 212.145 345.2 215.057 345.182 217.973V331.307C345.207 348.28 350.796 364.662 360.904 377.388C371.011 390.113 384.945 398.31 400.098 400.445V479.513H305.957V462.077H313.802C320.044 462.077 326.03 459.321 330.444 454.417C334.858 449.512 337.337 442.859 337.337 435.923C337.337 428.986 334.858 422.334 330.444 417.429C326.03 412.524 320.044 409.769 313.802 409.769H298.112V392.333C304.354 392.333 310.34 389.577 314.754 384.673C319.168 379.768 321.647 373.115 321.647 366.179C321.647 359.242 319.168 352.59 314.754 347.685C310.34 342.78 304.354 340.025 298.112 340.025H203.971C197.729 340.025 191.743 342.78 187.329 347.685C182.916 352.59 180.436 359.242 180.436 366.179C180.436 373.115 182.916 379.768 187.329 384.673C191.743 389.577 197.729 392.333 203.971 392.333V409.769H188.281C182.039 409.769 176.053 412.524 171.639 417.429C167.226 422.334 164.746 428.986 164.746 435.923C164.746 442.859 167.226 449.512 171.639 454.417C176.053 459.321 182.039 462.077 188.281 462.077H196.126V479.513H125.107V382.898C136.15 380.929 146.203 374.657 153.465 365.204C160.728 355.752 164.727 343.736 164.746 331.307V270.281C164.761 261.093 162.594 252.064 158.465 244.105C154.335 236.146 148.389 229.539 141.226 224.951C134.064 220.362 125.939 217.955 117.672 217.973C109.404 217.99 101.287 220.431 94.1406 225.049V191.819C94.1406 177.946 89.1815 164.641 80.3541 154.831C71.5267 145.022 59.5541 139.511 47.0703 139.511C34.5865 139.511 22.614 145.022 13.7866 154.831C4.95918 164.641 1.86023e-07 177.946 0 191.819V287.717C0.0187909 300.066 3.96613 312.011 11.1442 321.439C18.3222 330.867 28.2687 337.171 39.2253 339.237V479.513H0V496.949H470.703V479.513H415.788V400.445C430.94 398.31 444.874 390.113 454.982 377.388C465.089 364.662 470.678 348.28 470.703 331.307V217.973C470.684 199.482 464.066 181.754 452.3 168.679C440.534 155.604 424.582 148.25 407.943 148.229V148.229ZM196.126 366.179C196.128 363.867 196.956 361.651 198.426 360.017C199.897 358.382 201.891 357.463 203.971 357.461H298.112C300.193 357.461 302.188 358.379 303.659 360.014C305.131 361.649 305.957 363.867 305.957 366.179C305.957 368.491 305.131 370.708 303.659 372.343C302.188 373.978 300.193 374.897 298.112 374.897H203.971C201.891 374.895 199.897 373.975 198.426 372.341C196.956 370.706 196.128 368.49 196.126 366.179V366.179ZM219.661 392.333H282.422V409.769H219.661V392.333ZM180.436 435.923C180.438 433.611 181.265 431.395 182.736 429.761C184.207 428.126 186.201 427.207 188.281 427.205H313.802C315.883 427.205 317.878 428.123 319.349 429.758C320.821 431.393 321.647 433.611 321.647 435.923C321.647 438.235 320.821 440.453 319.349 442.087C317.878 443.722 315.883 444.641 313.802 444.641H188.281C186.201 444.639 184.207 443.719 182.736 442.085C181.265 440.45 180.438 438.234 180.436 435.923ZM211.816 462.077H290.267V479.513H211.816V462.077ZM117.676 235.409C125.996 235.418 133.972 239.095 139.855 245.633C145.739 252.171 149.047 261.035 149.056 270.281V331.307C149.039 339.103 146.67 346.668 142.329 352.792C137.987 358.916 131.924 363.246 125.107 365.089V335.684L145.44 321.209L136.982 306.532L125.107 314.986V261.563H109.417V279.839L98.4927 271.745L89.7896 286.252L109.417 300.794V364.798C102.795 362.799 96.9458 358.44 92.7688 352.39C88.5919 346.339 86.3177 338.933 86.2956 331.307V270.281C86.3044 261.035 89.6134 252.171 95.4964 245.633C101.379 239.096 109.356 235.418 117.676 235.409V235.409ZM15.6901 287.717V191.819C15.6901 182.57 18.9962 173.7 24.8812 167.16C30.7661 160.621 38.7478 156.947 47.0703 156.947C55.3929 156.947 63.3745 160.621 69.2595 167.16C75.1444 173.7 78.4505 182.57 78.4505 191.819V241.427C73.3293 249.973 70.5995 260.013 70.6055 270.281V310.466C66.4763 315.769 61.0107 319.573 54.9154 321.387V222.737L74.8349 208.556L66.377 193.879L54.9154 202.038V183.101H39.2253V253.991L27.8872 245.591L19.1841 260.098L39.2253 274.946V321.351C32.506 319.429 26.5503 315.085 22.2913 308.998C18.0322 302.912 15.7106 295.427 15.6901 287.717V287.717ZM54.9154 339.193C60.4676 338.131 65.8046 335.976 70.6751 332.829C71.0001 344.827 75.027 356.336 82.0806 365.426C89.1343 374.516 98.7858 380.635 109.417 382.757V479.513H54.9154V339.193ZM282.422 191.819C278.261 191.819 274.27 189.982 271.327 186.712C268.385 183.442 266.732 179.007 266.732 174.383C266.732 169.758 268.385 165.323 271.327 162.053C274.27 158.784 278.261 156.947 282.422 156.947H290.267C292.348 156.947 294.343 156.028 295.814 154.393C297.285 152.758 298.112 150.541 298.112 148.229C298.112 141.292 300.592 134.64 305.005 129.735C309.419 124.83 315.405 122.075 321.647 122.075C327.889 122.075 333.875 124.83 338.289 129.735C342.703 134.64 345.182 141.292 345.182 148.229C345.182 150.541 346.009 152.758 347.48 154.393C348.951 156.028 350.947 156.947 353.027 156.947H360.872C364.718 156.992 368.412 158.621 371.241 161.517C361.684 169.19 354.255 179.688 349.799 191.819H282.422ZM455.013 331.307C454.994 343.656 451.047 355.601 443.869 365.029C436.691 374.457 426.744 380.761 415.788 382.827V334.916L444.869 302.598L433.776 290.271L415.788 310.261V191.819H400.098V249.235L382.109 229.245L371.016 241.572L400.098 273.89V382.827C389.141 380.761 379.195 374.457 372.017 365.029C364.839 355.601 360.891 343.656 360.872 331.307V217.973C360.872 204.1 365.832 190.795 374.659 180.985C383.486 171.176 395.459 165.665 407.943 165.665C420.427 165.665 432.399 171.176 441.226 180.985C450.054 190.795 455.013 204.1 455.013 217.973V331.307Z" fill="#333333"/>
</svg>
