<svg width="500" height="500" viewBox="0 0 500 500" fill="none" xmlns="http://www.w3.org/2000/svg">
<g clip-path="url(#clip0_9_8)">
<path d="M492.188 398.438H469.687V312.5C469.687 310.428 468.864 308.441 467.399 306.976C465.934 305.511 463.947 304.688 461.875 304.688H409.063V125C409.063 122.928 408.239 120.941 406.774 119.476C405.309 118.011 403.322 117.188 401.25 117.188H348.516V31.25C348.516 29.178 347.693 27.1909 346.227 25.7257C344.762 24.2606 342.775 23.4375 340.703 23.4375H159.063C156.991 23.4375 155.003 24.2606 153.538 25.7257C152.073 27.1909 151.25 29.178 151.25 31.25V117.188H98.5156C96.4436 117.188 94.4565 118.011 92.9914 119.476C91.5262 120.941 90.7031 122.928 90.7031 125V304.688H37.8906C35.8186 304.688 33.8315 305.511 32.3664 306.976C30.9012 308.441 30.0781 310.428 30.0781 312.5V398.438H7.8125C5.7405 398.438 3.75336 399.261 2.28823 400.726C0.8231 402.191 0 404.178 0 406.25C0 408.322 0.8231 410.309 2.28823 411.774C3.75336 413.239 5.7405 414.062 7.8125 414.062H492.188C494.26 414.062 496.247 413.239 497.712 411.774C499.177 410.309 500 408.322 500 406.25C500 404.178 499.177 402.191 497.712 400.726C496.247 399.261 494.26 398.438 492.188 398.438ZM393.906 132.812V304.688H386.094V140.625H356.094V304.688H348.281V132.812H393.906ZM378.75 203.125V242.188H363.672V203.125H378.75ZM363.672 187.5V148.438H378.75V187.5H363.672ZM378.75 257.812V296.875H363.672V257.812H378.75ZM45.4688 320.312H90.9375V398.438H45.4688V320.312ZM106.094 132.812H151.484V398.438H106.094V132.812ZM166.641 39.0625H196.953V250C196.664 251.152 196.642 252.355 196.888 253.517C197.134 254.678 197.641 255.769 198.372 256.705C199.103 257.642 200.037 258.399 201.104 258.92C202.172 259.441 203.344 259.712 204.531 259.712C205.719 259.712 206.891 259.441 207.958 258.92C209.025 258.399 209.96 257.642 210.691 256.705C211.421 255.769 211.929 254.678 212.175 253.517C212.42 252.355 212.398 251.152 212.109 250V39.0625H333.359V304.688H227.266C225.194 304.688 223.206 305.511 221.741 306.976C220.276 308.441 219.453 310.428 219.453 312.5V398.438H166.641V39.0625ZM234.844 320.312H454.531V398.438H234.844V320.312Z" fill="#e9e9e9"/>
<path d="M113.672 140.625V304.688H143.906V140.625H113.672ZM136.328 296.875H121.25V257.812H136.328V296.875ZM136.328 242.188H121.25V203.125H136.328V242.188ZM136.328 187.5H121.25V148.438H136.328V187.5Z" fill="#e9e9e9"/>
</g>
<defs>
<clipPath id="clip0_9_8">
<rect width="500" height="500" fill="white"/>
</clipPath>
</defs>
</svg>
