<svg width="1529" height="534" viewBox="0 0 1529 534" fill="none" xmlns="http://www.w3.org/2000/svg">
<path d="M330.941 326.018C330.916 326.018 330.886 326.018 330.861 326.018C328.259 325.986 325.86 324.512 324.527 322.123L253.58 194.705C253.381 194.349 253.212 193.982 253.068 193.598C244.221 178.066 239.553 160.266 239.553 142.019C239.643 87.1518 281.421 42.5702 332.702 42.5702C332.742 42.5702 332.777 42.5702 332.817 42.5702C357.711 42.6074 381.083 53.0052 398.628 71.8425C416.163 90.6638 425.796 115.684 425.762 142.285C425.762 160.261 421.114 177.965 412.307 193.593C412.138 194.104 411.914 194.593 411.64 195.067L337.275 322.272C335.902 324.597 333.508 326.018 330.941 326.018ZM267.095 187.772L331.095 302.716L398.15 188.016C398.32 187.527 398.533 187.048 398.797 186.596C406.669 173.149 410.829 157.824 410.829 142.28C410.829 142.275 410.829 142.275 410.829 142.269C410.864 119.92 402.773 98.9118 388.049 83.1023C373.321 67.2928 353.696 58.5659 332.797 58.5286C332.767 58.5286 332.732 58.5286 332.697 58.5286C289.631 58.5286 254.551 95.9638 254.481 142.03C254.481 157.749 258.616 173.085 266.433 186.367C266.702 186.808 266.921 187.282 267.095 187.772Z" fill="#E9E9E9"/>
<path d="M332.727 179.412C332.702 179.412 332.677 179.412 332.647 179.412C322.138 179.412 312.241 175.022 304.802 167.051C297.353 159.069 293.263 148.469 293.283 137.193C293.293 125.954 297.403 115.381 304.857 107.431C312.301 99.4971 322.183 95.1283 332.697 95.1283C332.707 95.1283 332.722 95.1283 332.737 95.1283C354.457 95.1549 372.116 114.088 372.096 137.337C372.087 148.591 367.976 159.17 360.523 167.12C353.084 175.048 343.216 179.412 332.727 179.412ZM332.692 111.092C326.164 111.092 320.019 113.806 315.396 118.739C310.768 123.672 308.216 130.238 308.211 137.22C308.201 144.228 310.744 150.815 315.371 155.775C319.989 160.724 326.134 163.448 332.662 163.448C332.677 163.448 332.692 163.448 332.712 163.448C339.241 163.448 345.366 160.74 349.984 155.817C354.611 150.885 357.164 144.313 357.169 137.326C357.179 122.884 346.212 111.113 332.717 111.097C332.712 111.092 332.702 111.092 332.692 111.092ZM364.633 137.331H364.682H364.633Z" fill="#E9E9E9"/>
<path d="M454.587 439.244H7.46215C4.95429 439.244 2.61562 437.898 1.23231 435.658C-0.146012 433.423 -0.384856 430.592 0.600374 428.123L81.9315 224.627C83.1059 221.689 85.8078 219.779 88.7933 219.779H280.704C284.829 219.779 288.168 223.35 288.168 227.761C288.168 232.172 284.829 235.743 280.704 235.743H93.7195L18.7674 423.275H443.277L370.639 241.554C369.016 237.499 370.778 232.811 374.57 231.076C378.346 229.347 382.745 231.22 384.367 235.28L461.449 428.117C462.434 430.586 462.195 433.417 460.817 435.652C459.434 437.898 457.095 439.244 454.587 439.244Z" fill="#E9E9E9"/>
<path d="M331.822 437.813C328.08 437.813 324.85 434.812 324.417 430.735C324.373 430.342 319.606 391.071 268.19 381.743C263.408 380.875 255.78 380.082 246.943 379.172C198.283 374.138 153.898 367.604 145.34 343.27C139.816 327.572 147.887 315.604 154.366 305.989C161.461 295.463 163.8 290.866 160.178 284.262C157.884 280.08 150.579 276.674 143.513 273.38C129.68 266.931 110.732 258.098 110.633 233.886C110.613 229.474 113.942 225.888 118.062 225.867C118.072 225.867 118.086 225.867 118.096 225.867C122.207 225.867 125.54 229.416 125.56 233.811C125.615 246.689 134.636 251.824 149.484 258.747C158.74 263.062 168.308 267.521 173.06 276.19C181.942 292.388 173.006 305.648 166.482 315.328C160.362 324.406 156.739 330.339 159.317 337.65C165.313 354.695 221.421 360.495 248.386 363.288C257.506 364.23 265.383 365.044 270.688 366.008C333.046 377.326 339.027 426.83 339.251 428.932C339.718 433.311 336.778 437.265 332.682 437.765C332.394 437.797 332.105 437.813 331.822 437.813Z" fill="#E9E9E9"/>
<path d="M508.606 336V265.28H519.916L520.891 273.08H521.671C524.315 270.133 527.348 267.923 530.771 266.45C534.238 264.933 537.943 264.175 541.886 264.175C545.916 264.175 549.513 265.02 552.676 266.71C555.84 268.357 558.331 271.043 560.151 274.77C561.971 278.497 562.881 283.48 562.881 289.72V336H549.556V290.76C549.556 285.213 548.473 281.378 546.306 279.255C544.183 277.132 541.345 276.07 537.791 276.07C536.015 276.07 534.173 276.373 532.266 276.98C530.36 277.543 528.54 278.453 526.806 279.71C525.073 280.967 523.535 282.613 522.191 284.65V336H508.606ZM589.791 336V290.76C589.791 285.213 588.665 281.378 586.411 279.255C584.158 277.132 581.255 276.07 577.701 276.07C575.881 276.07 573.953 276.373 571.916 276.98C569.923 277.587 567.973 278.605 566.066 280.035C564.203 281.465 562.6 283.393 561.256 285.82L558.136 275.875C561.516 271.585 565.243 268.573 569.316 266.84C573.433 265.063 577.441 264.175 581.341 264.175C585.588 264.175 589.358 265.02 592.651 266.71C595.988 268.4 598.588 271.152 600.451 274.965C602.358 278.735 603.311 283.783 603.311 290.11V336H589.791ZM631.815 364.6L642.475 336L646.96 325.795L668.475 265.28H681.995L645.205 364.6H631.815ZM638.64 336L612.445 265.28H626.81L651.445 336H638.64ZM728.859 336V256.375C728.859 250.612 729.899 245.758 731.979 241.815C734.059 237.828 737.136 234.817 741.209 232.78C745.326 230.7 750.396 229.66 756.419 229.66C758.066 229.66 759.712 229.725 761.359 229.855C763.006 229.985 764.631 230.18 766.234 230.44V241.49C764.847 241.23 763.482 241.057 762.139 240.97C760.796 240.84 759.431 240.775 758.044 240.775C752.714 240.775 748.749 241.945 746.149 244.285C743.592 246.582 742.314 250.395 742.314 255.725V336H728.859ZM716.119 276.265V265.28H763.439V276.265H716.119ZM788.773 337.17C781.926 337.17 776.553 335.415 772.653 331.905C768.796 328.395 766.868 323.607 766.868 317.54C766.868 311.257 768.991 306.338 773.238 302.785C777.484 299.232 784.288 297.043 793.648 296.22L811.393 294.465L812.758 302.72L794.818 304.54C789.704 305.06 786.021 306.295 783.768 308.245C781.558 310.152 780.453 312.838 780.453 316.305C780.453 319.815 781.471 322.523 783.508 324.43C785.588 326.293 788.621 327.225 792.608 327.225C795.381 327.225 798.154 326.662 800.928 325.535C803.701 324.408 806.193 322.523 808.403 319.88V290.24C808.403 286.253 807.774 283.155 806.518 280.945C805.261 278.735 803.333 277.175 800.733 276.265C798.133 275.355 794.818 274.9 790.788 274.9C788.101 274.9 785.068 275.138 781.688 275.615C778.308 276.092 774.971 276.872 771.678 277.955V267.295C774.841 266.255 778.329 265.475 782.143 264.955C785.956 264.435 789.531 264.175 792.868 264.175C799.324 264.175 804.676 265.02 808.923 266.71C813.213 268.357 816.398 271.13 818.478 275.03C820.601 278.93 821.663 284.26 821.663 291.02V336H810.418L809.443 328.395H808.663C806.409 331.298 803.528 333.487 800.018 334.96C796.551 336.433 792.803 337.17 788.773 337.17ZM856.999 336L830.804 265.28H845.169L866.684 325.795H865.319L886.834 265.28H900.354L874.224 336H856.999ZM937.536 337.3C931.166 337.3 925.62 336 920.896 333.4C916.216 330.8 912.576 326.813 909.976 321.44C907.376 316.067 906.076 309.177 906.076 300.77C906.076 292.32 907.355 285.408 909.911 280.035C912.468 274.662 916.086 270.675 920.766 268.075C925.49 265.475 931.08 264.175 937.536 264.175C943.993 264.175 949.561 265.475 954.241 268.075C958.965 270.675 962.605 274.662 965.161 280.035C967.718 285.408 968.996 292.298 968.996 300.705C968.996 309.068 967.696 315.958 965.096 321.375C962.54 326.792 958.9 330.8 954.176 333.4C949.453 336 943.906 337.3 937.536 337.3ZM937.536 326.575C941.176 326.575 944.318 325.795 946.961 324.235C949.605 322.632 951.641 319.967 953.071 316.24C954.501 312.47 955.216 307.335 955.216 300.835C955.216 294.248 954.501 289.07 953.071 285.3C951.641 281.53 949.605 278.865 946.961 277.305C944.318 275.702 941.176 274.9 937.536 274.9C933.896 274.9 930.755 275.68 928.111 277.24C925.468 278.8 923.431 281.465 922.001 285.235C920.571 288.962 919.856 294.075 919.856 300.575C919.856 307.162 920.55 312.34 921.936 316.11C923.366 319.88 925.403 322.567 928.046 324.17C930.733 325.773 933.896 326.575 937.536 326.575ZM983.792 336V265.28H995.037L996.142 274.64H996.857C999.154 271.26 1002.08 268.725 1005.63 267.035C1009.19 265.345 1012.96 264.5 1016.94 264.5C1017.98 264.5 1018.98 264.543 1019.93 264.63C1020.89 264.717 1021.77 264.847 1022.6 265.02V277.435C1021.56 277.262 1020.5 277.153 1019.41 277.11C1018.37 277.023 1017.31 276.98 1016.23 276.98C1013.97 276.98 1011.66 277.327 1009.27 278.02C1006.93 278.67 1004.72 279.667 1002.64 281.01C1000.56 282.353 998.807 284.022 997.377 286.015V336H983.792ZM1033.18 336V265.28H1046.76V336H1033.18ZM1040 251.5C1037.06 251.5 1034.82 250.807 1033.31 249.42C1031.79 248.033 1031.03 246.127 1031.03 243.7C1031.03 241.187 1031.79 239.237 1033.31 237.85C1034.82 236.463 1037.06 235.77 1040 235.77C1042.99 235.77 1045.22 236.463 1046.7 237.85C1048.21 239.237 1048.97 241.187 1048.97 243.7C1048.97 246.127 1048.21 248.033 1046.7 249.42C1045.22 250.807 1042.99 251.5 1040 251.5ZM1093.57 337.235C1085.95 337.235 1080.03 335.307 1075.83 331.45C1071.67 327.55 1069.59 321.375 1069.59 312.925V265.28L1071.93 239.8H1083.17V310.715C1083.17 316.305 1084.3 320.227 1086.55 322.48C1088.81 324.69 1092.23 325.795 1096.82 325.795C1098.12 325.795 1099.42 325.708 1100.72 325.535C1102.02 325.362 1103.48 325.102 1105.08 324.755V335.935C1103.3 336.325 1101.42 336.628 1099.42 336.845C1097.47 337.105 1095.52 337.235 1093.57 337.235ZM1056.85 276.265V265.28H1104.23V276.265H1056.85ZM1146.52 337.3C1138.72 337.3 1132.2 336.043 1126.96 333.53C1121.76 331.017 1117.86 327.073 1115.26 321.7C1112.66 316.283 1111.36 309.263 1111.36 300.64C1111.36 292.493 1112.55 285.733 1114.93 280.36C1117.36 274.943 1120.81 270.892 1125.27 268.205C1129.73 265.518 1135.06 264.175 1141.26 264.175C1147.33 264.175 1152.46 265.518 1156.66 268.205C1160.91 270.892 1164.12 274.965 1166.28 280.425C1168.49 285.842 1169.6 292.688 1169.6 300.965V304.865H1118.9V296.285H1159.39L1156.79 297.715C1156.79 291.735 1156.19 286.968 1154.97 283.415C1153.76 279.862 1151.98 277.327 1149.64 275.81C1147.3 274.25 1144.47 273.47 1141.13 273.47C1137.79 273.47 1134.91 274.228 1132.48 275.745C1130.1 277.262 1128.26 279.797 1126.96 283.35C1125.66 286.903 1125.01 291.692 1125.01 297.715V302.785C1125.01 308.635 1125.81 313.315 1127.41 316.825C1129.02 320.292 1131.53 322.783 1134.95 324.3C1138.38 325.817 1142.82 326.575 1148.28 326.575C1150.97 326.575 1153.78 326.358 1156.73 325.925C1159.68 325.448 1162.75 324.777 1165.96 323.91V334.57C1162.45 335.523 1159.11 336.217 1155.95 336.65C1152.79 337.083 1149.64 337.3 1146.52 337.3ZM1215.48 364.6V265.28H1226.99L1227.9 273.015H1228.61C1230.69 270.372 1233.38 268.248 1236.67 266.645C1239.96 264.998 1243.71 264.175 1247.92 264.175C1253.03 264.175 1257.71 265.323 1261.96 267.62C1266.25 269.917 1269.67 273.643 1272.23 278.8C1274.83 283.913 1276.13 290.76 1276.13 299.34C1276.13 307.747 1274.74 314.767 1271.97 320.4C1269.19 325.99 1265.08 330.193 1259.62 333.01C1254.2 335.827 1247.5 337.235 1239.53 337.235C1237.75 337.235 1235.96 337.148 1234.14 336.975C1232.32 336.845 1230.63 336.672 1229.07 336.455V364.6H1215.48ZM1239.66 326.51C1247.2 326.51 1252.86 324.495 1256.63 320.465C1260.44 316.392 1262.35 309.718 1262.35 300.445C1262.35 293.988 1261.57 288.962 1260.01 285.365C1258.49 281.768 1256.37 279.233 1253.64 277.76C1250.95 276.287 1247.87 275.55 1244.41 275.55C1241.59 275.55 1238.79 276.157 1236.02 277.37C1233.29 278.54 1230.97 280.447 1229.07 283.09V325.405C1230.5 325.752 1232.16 326.033 1234.07 326.25C1235.98 326.423 1237.84 326.51 1239.66 326.51ZM1290.89 336V230.96H1304.48V336H1290.89ZM1340.89 337.17C1334.05 337.17 1328.67 335.415 1324.77 331.905C1320.92 328.395 1318.99 323.607 1318.99 317.54C1318.99 311.257 1321.11 306.338 1325.36 302.785C1329.6 299.232 1336.41 297.043 1345.77 296.22L1363.51 294.465L1364.88 302.72L1346.94 304.54C1341.82 305.06 1338.14 306.295 1335.89 308.245C1333.68 310.152 1332.57 312.838 1332.57 316.305C1332.57 319.815 1333.59 322.523 1335.63 324.43C1337.71 326.293 1340.74 327.225 1344.73 327.225C1347.5 327.225 1350.27 326.662 1353.05 325.535C1355.82 324.408 1358.31 322.523 1360.52 319.88V290.24C1360.52 286.253 1359.89 283.155 1358.64 280.945C1357.38 278.735 1355.45 277.175 1352.85 276.265C1350.25 275.355 1346.94 274.9 1342.91 274.9C1340.22 274.9 1337.19 275.138 1333.81 275.615C1330.43 276.092 1327.09 276.872 1323.8 277.955V267.295C1326.96 266.255 1330.45 265.475 1334.26 264.955C1338.08 264.435 1341.65 264.175 1344.99 264.175C1351.44 264.175 1356.8 265.02 1361.04 266.71C1365.33 268.357 1368.52 271.13 1370.6 275.03C1372.72 278.93 1373.78 284.26 1373.78 291.02V336H1362.54L1361.56 328.395H1360.78C1358.53 331.298 1355.65 333.487 1352.14 334.96C1348.67 336.433 1344.92 337.17 1340.89 337.17ZM1420.88 337.3C1413.82 337.3 1407.82 336 1402.88 333.4C1397.98 330.8 1394.26 326.813 1391.7 321.44C1389.14 316.067 1387.86 309.155 1387.86 300.705C1387.86 292.212 1389.23 285.278 1391.96 279.905C1394.73 274.532 1398.76 270.567 1404.05 268.01C1409.34 265.453 1415.77 264.175 1423.35 264.175C1425.95 264.175 1428.51 264.327 1431.02 264.63C1433.54 264.933 1435.94 265.367 1438.24 265.93V277.11C1435.94 276.547 1433.69 276.135 1431.48 275.875C1429.31 275.572 1427.15 275.42 1424.98 275.42C1419.78 275.42 1415.47 276.243 1412.04 277.89C1408.62 279.537 1406.06 282.202 1404.37 285.885C1402.73 289.525 1401.9 294.4 1401.9 300.51C1401.9 306.75 1402.68 311.733 1404.24 315.46C1405.85 319.187 1408.21 321.873 1411.33 323.52C1414.45 325.167 1418.31 325.99 1422.9 325.99C1425.15 325.99 1427.49 325.773 1429.92 325.34C1432.39 324.907 1435.16 324.235 1438.24 323.325V334.44C1435.55 335.35 1432.74 336.043 1429.79 336.52C1426.84 337.04 1423.87 337.3 1420.88 337.3ZM1480.92 337.3C1473.12 337.3 1466.6 336.043 1461.35 333.53C1456.15 331.017 1452.25 327.073 1449.65 321.7C1447.05 316.283 1445.75 309.263 1445.75 300.64C1445.75 292.493 1446.95 285.733 1449.33 280.36C1451.76 274.943 1455.2 270.892 1459.66 268.205C1464.13 265.518 1469.46 264.175 1475.65 264.175C1481.72 264.175 1486.86 265.518 1491.06 268.205C1495.31 270.892 1498.51 274.965 1500.68 280.425C1502.89 285.842 1503.99 292.688 1503.99 300.965V304.865H1453.29V296.285H1493.79L1491.19 297.715C1491.19 291.735 1490.58 286.968 1489.37 283.415C1488.16 279.862 1486.38 277.327 1484.04 275.81C1481.7 274.25 1478.86 273.47 1475.52 273.47C1472.19 273.47 1469.31 274.228 1466.88 275.745C1464.5 277.262 1462.65 279.797 1461.35 283.35C1460.05 286.903 1459.4 291.692 1459.4 297.715V302.785C1459.4 308.635 1460.21 313.315 1461.81 316.825C1463.41 320.292 1465.93 322.783 1469.35 324.3C1472.77 325.817 1477.21 326.575 1482.67 326.575C1485.36 326.575 1488.18 326.358 1491.12 325.925C1494.07 325.448 1497.15 324.777 1500.35 323.91V334.57C1496.84 335.523 1493.51 336.217 1490.34 336.65C1487.18 337.083 1484.04 337.3 1480.92 337.3Z" fill="#E9E9E9"/>
</svg>
